{"title":"RuPauls Drag Race RuVealed S09E06 Snatch Game 1080p FuzzcoNews","magnet":"magnet:?xt=urn:btih:f7ed7d246bf94799f6cded9bf0f45a3437a4ce09&dn=RuPauls+Drag+Race+RuVealed+S09E06+Snatch+Game+1080p+FuzzcoNews&tr=udp%3A%2F%2Ftracker.leechers-paradise.org%3A6969&tr=udp%3A%2F%2Fzer0day.ch%3A1337&tr=udp%3A%2F%2Fopen.demonii.com%3A1337&tr=udp%3A%2F%2Ftracker.coppersurfer.tk%3A6969&tr=udp%3A%2F%2Fexodus.desync.com%3A6969","uploader":"Fuzzco","categoryP":"video","categoryS":"tv_shows","size":"1563833792","seeders":"1","leechers":"3","description":"General\r\nFormat                         : MPEG-4\r\nFormat profile                 : Base Media\r\nCodec ID                       : isom (isom/iso2/avc1/mp41)\r\nFile size                      : 1.46 GiB\r\nDuration                       : 41 min 28 s\r\nOverall bit rate               : 5 027 kb/s\r\nWriting application            : Lavf57.44.100\r\n\r\nVideo\r\nID                             : 1\r\nFormat                         : AVC\r\nFormat/Info                    : Advanced Video Codec\r\nFormat profile                 : <a class=\"__cf_email__\" href=\"/cdn-cgi/l/email-protection\" data-cfemail=\"5e163739361e126a\">[email&#xA0;protected]</a><script data-cfhash=\"f9e31\" type=\"text/javascript\">/* <![CDATA[ */!function(t,e,r,n,c,a,p){try{t=document.currentScript||function(){for(t=document.getElementsByTagName('script'),e=t.length;e--;)if(t[e].getAttribute('data-cfhash'))return t[e]}();if(t&&(c=t.previousSibling)){p=t.parentNode;if(a=c.getAttribute('data-cfemail')){for(e='',r='0x'+a.substr(0,2)|0,n=2;a.length-n;n+=2)e+='%'+('0'+('0x'+a.substr(n,2)^r).toString(16)).slice(-2);p.replaceChild(document.createTextNode(decodeURIComponent(e)),c)}p.removeChild(t)}}catch(u){}}()/* ]]> */</script>\r\nFormat settings, CABAC         : Yes\r\nFormat settings, ReFrames      : 4 frames\r\nCodec ID                       : avc1\r\nCodec ID/Info                  : Advanced Video Coding\r\nDuration                       : 41 min 28 s\r\nBit rate                       : 4 889 kb/s\r\nWidth                          : 1 920 pixels\r\nHeight                         : 1 080 pixels\r\nDisplay aspect ratio           : 16:9\r\nFrame rate mode                : Variable\r\nFrame rate                     : 29.970 (29970/1000) FPS\r\nMinimum frame rate             : 12.195 FPS\r\nMaximum frame rate             : 31.250 FPS\r\nColor space                    : YUV\r\nChroma subsampling             : 4:2:0\r\nBit depth                      : 8 bits\r\nScan type                      : Progressive\r\nBits/(Pixel*Frame)             : 0.079\r\nStream size                    : 1.42 GiB (97%)\r\nWriting library                : x264 core 148\r\nEncoding settings              : cabac=1 / ref=4 / deblock=1:0:0 / analyse=0x3:0x113 / me=umh / subme=10 / psy=1 / psy_rd=1.00:0.15 / mixed_ref=1 / me_range=32 / chroma_me=1 / trellis=2 / 8x8dct=1 / cqm=0 / deadzone=21,11 / fast_pskip=1 / chroma_qp_offset=-3 / threads=24 / lookahead_threads=6 / sliced_threads=0 / nr=0 / decimate=1 / interlaced=0 / bluray_compat=0 / constrained_intra=0 / bframes=3 / b_pyramid=0 / b_adapt=2 / b_bias=0 / direct=3 / weightb=1 / open_gop=0 / weightp=2 / keyint=60 / keyint_min=6 / scenecut=0 / intra_refresh=0 / rc_lookahead=60 / rc=crf / mbtree=1 / crf=19.0 / qcomp=0.75 / qpmin=10 / qpmax=51 / qpstep=4 / vbv_maxrate=5000 / vbv_bufsize=10000 / crf_max=0.0 / nal_hrd=none / filler=0 / ip_ratio=1.40 / aq=1:0.80\r\n\r\nAudio\r\nID                             : 2\r\nFormat                         : AAC\r\nFormat/Info                    : Advanced Audio Codec\r\nFormat profile                 : LC\r\nCodec ID                       : 40\r\nDuration                       : 41 min 28 s\r\nBit rate mode                  : Constant\r\nBit rate                       : 128 kb/s\r\nChannel(s)                     : 2 channels\r\nChannel positions              : Front: L R\r\nSampling rate                  : 48.0 kHz\r\nFrame rate                     : 46.875 FPS (1024 spf)\r\nCompression mode               : Lossy\r\nStream size                    : 38.0 MiB (3%)\r\nDefault                        : Yes\r\nAlternate group                : 1","last_updated":"2017-08-09T12:04:35.209Z","parsed":{"xt":"urn:btih:f7ed7d246bf94799f6cded9bf0f45a3437a4ce09","dn":"RuPauls Drag Race RuVealed S09E06 Snatch Game 1080p FuzzcoNews","tr":["udp://exodus.desync.com:6969","udp://open.demonii.com:1337","udp://tracker.coppersurfer.tk:6969","udp://tracker.leechers-paradise.org:6969","udp://zer0day.ch:1337"],"infoHash":"f7ed7d246bf94799f6cded9bf0f45a3437a4ce09","infoHashBuffer":{"type":"Buffer","data":[247,237,125,36,107,249,71,153,246,205,237,155,240,244,90,52,55,164,206,9]},"name":"RuPauls Drag Race RuVealed S09E06 Snatch Game 1080p FuzzcoNews","announce":["udp://exodus.desync.com:6969","udp://open.demonii.com:1337","udp://tracker.coppersurfer.tk:6969","udp://tracker.leechers-paradise.org:6969","udp://zer0day.ch:1337"],"urlList":[]}}